<svg xmlns="http://www.w3.org/2000/svg" xmlns:xlink="http://www.w3.org/1999/xlink" xml:space="preserve" id="Ebene_1" width="205" height="63" x="0" y="0" class="logo-img replaced-svg" style="enable-background:new 0 0 491 149" version="1.1" viewBox="0 0 491 149"><style>.st1{fill:#27467c}.st2{fill:#07ccec}</style><defs><path id="SVGID_1_" d="M0 0h491v149H0z"/></defs><clipPath id="SVGID_00000140722143463290233580000009277906836899948220_"><use xlink:href="#SVGID_1_" style="overflow:visible"/></clipPath><g id="plus" style="clip-path:url(#SVGID_00000140722143463290233580000009277906836899948220_)"><g id="Component_1_1" transform="translate(4.136 4.711)"><path id="Path_8" d="M121 141.3c-10.4 0-22.9-3.5-36.3-10.2-14.8-7.6-28.4-17.2-40.5-28.7-8.9-8.2-16.9-17.3-24-27.1C14.1 67.1 9 58.1 5.1 48.6 1.6 39.8-.1 31.9 0 24.9c.1-7.2 2.2-13 6.2-17.3C8.7 5 11.7 3 15.1 1.9 18.9.6 22.8 0 26.8 0c6.9 0 14.8 1.5 23.3 4.6 9.3 3.4 18.2 7.9 26.5 13.2C64.8 12.3 53.5 9.3 44 9.3c-9.3 0-16.8 2.8-21.6 8.2-7.5 8.3-8.1 22-1.8 38.3S39.5 89.4 56 104.2c22.3 20.1 48.4 32.5 68.2 32.5 8.5 0 15.6-2.4 20.4-6.9-.8 1.4-1.8 2.7-2.9 3.9-2.4 2.6-5.5 4.5-8.8 5.7-4 1.4-7.9 2-11.9 1.9zm-19.1-14.2c-7.6-2.9-14.7-6.7-21.3-11.4l.6.2c3.3 1.7 6.8 3.2 10.3 4.4 5.5 2 13.6 4.4 20.9 4.4 6.1 0 10.8-1.7 14-5 3.5-3.7 5.1-9.5 4.7-17.2l4-5-.5-18.2c5.6 8.6 9.2 17.2 10.2 25 .5 3.6.4 7.2-.3 10.8-.7 3.2-2.2 6.2-4.3 8.6-4.1 4.8-10.6 7.3-18.7 7.3-6.7-.1-13.4-1.5-19.6-3.9zm1.1-71.7-3.2-3.6V40.2l16.7 15.3-13.5-.1zM57.4 19.9l-5.7 5.3c-9.1-.1-11.3-1.5-22.2 4.3 7.4-15.8 27.9-9.6 27.9-9.6z" class="st1"/><path id="Path_4" d="M31.8 58.5h21.8V30.1c0-5.5 6.2-5 6.2-5h29.4s5.7-.2 5.8 5v28.4h28.6c6.5.2 6.4 7.7 6.4 7.7v27.6s.4 6.6-6.4 6.8H95v17.8C48.4 99.3 31.8 58.5 31.8 58.5z" class="st2"/><path id="Path_6" d="M183.2 35.6c3 0 6 .6 8.8 1.7 2.7 1.1 5.2 2.6 7.5 4.5 2.1-2.1 4.7-3.7 7.4-4.7s5.6-1.6 8.5-1.6c3.3 0 6.5.7 9.5 2 2.9 1.3 5.5 3.1 7.7 5.3 2.2 2.2 4 4.9 5.2 7.7 1.3 2.9 2 6.1 2 9.3V104c0 2.2-.9 4.3-2.5 5.8-1.5 1.5-3.6 2.4-5.7 2.4-2.2 0-4.3-.8-5.8-2.4-1.6-1.5-2.4-3.6-2.4-5.8V60.8c0-2.1-.8-4.2-2.3-5.7-1.5-1.5-3.6-2.4-5.8-2.3-2.1 0-4.1.8-5.6 2.3-1.5 1.5-2.4 3.6-2.3 5.7v9.8c0 2.2-.8 4.2-2.3 5.8-1.5 1.6-3.5 2.4-5.7 2.4-2.2.1-4.3-.8-5.8-2.4-1.5-1.5-2.4-3.6-2.3-5.8v-9.8c0-2.2-.9-4.2-2.5-5.7-1.5-1.5-3.6-2.4-5.7-2.3-2.1 0-4.2.8-5.7 2.3-1.6 1.5-2.5 3.5-2.5 5.7v43.3c0 2.1-.8 4.2-2.3 5.8-1.5 1.6-3.6 2.5-5.8 2.4-2.1 0-4.2-.8-5.6-2.4-1.5-1.5-2.3-3.6-2.3-5.8V60c.2-3.3 1-6.6 2.3-9.6 1.2-2.9 2.9-5.5 5.1-7.7 2.1-2.2 4.6-3.9 7.4-5.2 3.1-1.3 6.3-1.9 9.5-1.9zm93 18.6c3.8 0 7.6.8 11 2.4 3.5 1.6 6.6 3.7 9.3 6.4 2.7 2.7 4.8 5.8 6.4 9.2 1.6 3.4 2.4 7.2 2.4 11 .1 1.9-.8 3.8-2.3 4.9-1.7 1.2-3.7 1.8-5.8 1.7h-31.9c2.6 4.6 6.3 6.8 10.9 6.8 1.1 0 2.2-.1 3.2-.4.8-.2 1.6-.5 2.3-.8.7-.3 1.3-.6 2-.8.8-.3 1.5-.4 2.3-.4 1.6 0 3.1.5 4.4 1.4 1.2.8 2.2 2 2.8 3.3.6 1.3.8 2.8.6 4.3-.2 1.6-1 3.1-2.1 4.2-2.1 1.7-4.6 3-7.2 3.7-2.7.7-5.6 1.1-8.4 1.1-3.8.2-7.6-.6-11-2.1-3.5-1.5-6.6-3.7-9.3-6.4-2.7-2.7-4.9-5.9-6.4-9.4s-2.3-7.3-2.3-11.2c0-3.8.8-7.5 2.3-10.9 1.5-3.5 3.7-6.6 6.3-9.3 2.7-2.7 5.8-4.9 9.2-6.4 3.6-1.5 7.4-2.3 11.3-2.3zm10.9 22.3c-1.1-2.2-2.7-4-4.8-5.2-1.9-1-4-1.5-6.1-1.5-2.2 0-4.3.5-6.2 1.5-2 1.3-3.7 3.1-4.7 5.2h21.8zm72.5-40.7c2 0 4 .8 5.5 2.2 1.6 1.5 2.4 3.6 2.3 5.7v39.5c0 3.8-.8 7.6-2.3 11.2-1.5 3.5-3.7 6.6-6.4 9.2-2.7 2.6-5.8 4.8-9.3 6.3-3.5 1.6-7.2 2.3-11 2.3s-7.6-.8-11-2.3c-3.5-1.5-6.6-3.6-9.3-6.2-2.7-2.7-4.9-5.8-6.4-9.2-1.6-3.5-2.4-7.4-2.4-11.3 0-3.8.8-7.6 2.3-11.2 1.5-3.5 3.7-6.6 6.4-9.2 2.7-2.6 5.8-4.8 9.3-6.3 3.5-1.6 7.3-2.4 11.2-2.3 4.6 0 9.2 1.1 13.3 3.2V43.6c0-1 .2-2.1.7-3 .4-.9 1-1.8 1.7-2.5s1.6-1.3 2.5-1.7c.8-.3 1.9-.6 2.9-.6zm-21.3 34c-1.8 0-3.6.4-5.2 1.1-1.6.7-3.1 1.7-4.3 2.9-1.2 1.2-2.2 2.7-2.9 4.3-.7 1.6-1.1 3.3-1.1 5.1 0 1.8.4 3.6 1.1 5.2.7 1.6 1.7 3 2.9 4.3 1.3 1.2 2.7 2.2 4.3 2.9 1.6.7 3.4 1.1 5.2 1.1 1.7 0 3.5-.4 5-1.1 1.6-.7 3-1.7 4.3-2.9 1.2-1.2 2.2-2.7 2.9-4.3.7-1.6 1.1-3.4 1.1-5.2 0-1.8-.4-3.7-1.1-5.3-.7-1.6-1.7-3-2.9-4.3-1.2-1.2-2.7-2.2-4.3-2.8-1.5-.6-3.2-1-5-1zm45.2-33.6c2 0 4 .8 5.3 2.3C390.2 40 391 42 391 44s-.8 4-2.2 5.5c-1.4 1.5-3.3 2.4-5.3 2.3-2.1 0-4.1-.8-5.7-2.2-1.5-1.6-2.4-3.7-2.2-5.9.1-2 .9-3.9 2.5-5.3 1.4-1.4 3.3-2.2 5.4-2.2zm0 18.4c2 0 3.9.8 5.2 2.3 1.4 1.5 2.2 3.5 2.3 5.5v42.5c.1 2-.7 3.9-2 5.4-1.5 1.5-3.4 2.3-5.5 2.4-1.9.1-3.8-.6-5.3-1.9-1.5-1.4-2.4-3.3-2.6-5.4V61.9c.1-2 1-3.8 2.5-5.2 1.4-1.3 3.4-2.1 5.4-2.1zm90-18.4c2 0 4 .8 5.3 2.3C480.2 40 481 42 481 44s-.8 4-2.2 5.5c-1.4 1.5-3.3 2.4-5.3 2.3-2.1 0-4.1-.8-5.7-2.2-1.5-1.6-2.4-3.7-2.2-5.9.1-2 .9-3.9 2.5-5.3 1.4-1.4 3.3-2.2 5.4-2.2zm0 18.4c2 0 3.9.8 5.2 2.3 1.4 1.5 2.2 3.5 2.3 5.5v42.5c.1 2-.7 3.9-2 5.4-1.5 1.5-3.4 2.3-5.5 2.4-1.9.1-3.8-.6-5.3-1.9-1.5-1.4-2.4-3.3-2.6-5.4V61.9c.1-2 1-3.8 2.5-5.2 1.4-1.3 3.4-2.1 5.4-2.1z" class="st1"/><path id="Path_7" d="M444.9 55.5c1.4-1.5 3.3-2.3 5.3-2.2 2.1 0 4 .9 5.5 2.3 1.4 1.4 2.2 3.4 2.2 5.4 0 2.1-.7 4-2.2 5.5l-15.6 15.7L455.7 98c1.4 1.5 2.3 3.4 2.3 5.5.2 4.2-3.1 7.7-7.3 7.9h-.4c-2.2 0-4.2-.9-5.7-2.5L429 93.4l-15.6 15.7c-1.5 1.3-3.4 2.1-5.4 2.2-2.1.2-4.2-.6-5.6-2.2-1.4-1.4-2.3-3.3-2.3-5.3-.1-2.1.6-4.1 2.1-5.6l16-16-16-16c-1.5-1.4-2.2-3.3-2-5.3.2-2 1-3.9 2.3-5.4 1.4-1.6 3.5-2.5 5.6-2.4 2 .2 3.9 1 5.4 2.4L429 71.2l15.9-15.7z" class="st2"/></g></g></svg>